<?xml version="1.0" encoding="UTF-8" standalone="no"?>
<!-- Created with Inkscape (http://www.inkscape.org/) -->

<svg
   version="1.1"
   id="svg2"
   xml:space="preserve"
   width="140.99001"
   height="123.526"
   viewBox="0 0 140.99 123.526"
   xmlns="http://www.w3.org/2000/svg"
   xmlns:svg="http://www.w3.org/2000/svg"><defs
     id="defs6" /><g
     id="g8"
     transform="matrix(1.3333333,0,0,-1.3333333,0,854.92)"><g
       id="g4625"
       transform="translate(-586.45659,-333.46636)"><path
         d="m 586.50353,920.99073 c -1.21875,26.394 21.44335,48.883 50.61755,50.23 29.1742,1.347 53.8134,-18.957 55.0314,-45.351 1.22,-26.394 -21.7415,-42.421 -50.9157,-43.768 -29.1743,-1.347 -53.5145,12.495 -54.73325,38.889"
         style="fill:#141110;fill-opacity:1;fill-rule:nonzero;stroke:none;stroke-width:0.1"
         id="path338-2" /><path
         d="m 619.25388,941.44273 38.4032,1.773 c 13.3605,0.618 24.6914,-9.713 25.3084,-23.074 v 0 c 0.617,-13.361 -9.7135,-24.692 -23.0745,-25.308 l -38.4027,-1.774 c -13.3609,-0.617 -24.6918,9.714 -25.3086,23.074 v 0 c -0.6172,13.361 9.7133,24.692 23.0742,25.309"
         style="fill:#f89917;fill-opacity:1;fill-rule:nonzero;stroke:none;stroke-width:0.1"
         id="path340-8" /><path
         d="m 672.01368,921.89173 c -0.3793,8.21 -6.6773,14.589 -14.0668,14.248 -7.3898,-0.342 -13.073,-7.274 -12.6934,-15.484 0.379,-8.21 6.6766,-14.589 14.0665,-14.248 7.3894,0.342 13.0726,7.274 12.6937,15.484"
         style="fill:#ffffff;fill-opacity:1;fill-rule:nonzero;stroke:none;stroke-width:0.1"
         id="path342-9" /><path
         d="m 666.18748,921.62273 c -0.2144,4.635 -3.7699,8.236 -7.9418,8.044 -4.1718,-0.193 -7.38,-4.107 -7.166,-8.742 0.2137,-4.635 3.7696,-8.237 7.9414,-8.044 4.1719,0.193 7.3805,4.106 7.1664,8.742"
         style="fill:#100f0d;fill-opacity:1;fill-rule:nonzero;stroke:none;stroke-width:0.1"
         id="path344-7" /><path
         d="m 635.98638,898.88073 c -1.3403,0 -2.6137,0.493 -3.611,1.402 -1.0594,0.966 -1.6793,2.286 -1.7457,3.718 -0.0293,0.635 0.4617,1.173 1.0957,1.203 0.6285,0.017 1.1727,-0.462 1.2024,-1.096 0.0375,-0.819 0.3922,-1.574 0.9976,-2.126 0.6051,-0.552 1.3836,-0.835 2.2078,-0.797 1.6899,0.078 3.0012,1.516 2.9231,3.206 -0.0293,0.634 0.4613,1.172 1.0957,1.202 0.6328,0.019 1.1723,-0.461 1.2019,-1.096 0.1364,-2.957 -2.1578,-5.473 -5.114,-5.61 -0.0852,-0.004 -0.1696,-0.006 -0.2535,-0.006"
         style="fill:#100f0d;fill-opacity:1;fill-rule:nonzero;stroke:none;stroke-width:0.1"
         id="path346-3" /><path
         d="m 644.41568,899.27073 c -2.8473,0 -5.2266,2.247 -5.3594,5.12 -0.0293,0.634 0.4613,1.172 1.0957,1.202 0.6328,0.019 1.1723,-0.461 1.2019,-1.096 0.0375,-0.819 0.3922,-1.574 0.9977,-2.125 0.6051,-0.552 1.3875,-0.843 2.2082,-0.798 1.6891,0.078 3.0004,1.516 2.9223,3.206 -0.0293,0.635 0.4613,1.173 1.0957,1.202 0.6203,0.021 1.1722,-0.461 1.2019,-1.096 0.1363,-2.957 -2.1574,-5.473 -5.1137,-5.61 -0.0839,-0.004 -0.1675,-0.005 -0.2503,-0.005"
         style="fill:#100f0d;fill-opacity:1;fill-rule:nonzero;stroke:none;stroke-width:0.1"
         id="path348-6" /><path
         d="m 637.13128,909.71973 c -0.0445,0.958 1.1847,1.793 2.7441,1.865 1.5598,0.072 2.8598,-0.646 2.9043,-1.604 0.0442,-0.959 -1.1426,-2.7 -2.7019,-2.772 -1.5602,-0.072 -2.902,1.553 -2.9465,2.511"
         style="fill:#100f0d;fill-opacity:1;fill-rule:nonzero;stroke:none;stroke-width:0.1"
         id="path350-1" /><path
         d="m 623.79298,962.37073 c 0,0 -12.9848,10.447 -35.53477,7.755 0,0 -4.21171,-19.864 5.05277,-32.24 0,0 19.0875,7.678 30.482,24.485"
         style="fill:#141110;fill-opacity:1;fill-rule:nonzero;stroke:none;stroke-width:0.1"
         id="path352-2" /><path
         d="m 604.85708,958.97473 c -2.7536,0.851 -5.1516,1.461 -9.8469,0.524 0,0 -1.7125,-4.339 0.8355,-9.986 0.4278,-0.949 1.7575,-1.033 2.5942,-0.433 1.9074,1.37 5.2082,4.035 7.0656,7.227 0.5371,0.923 0.3598,2.356 -0.6484,2.668"
         style="fill:#ee1b78;fill-opacity:1;fill-rule:nonzero;stroke:none;stroke-width:0.1"
         id="path354-9" /><path
         d="m 651.20858,963.63673 c 0,0 11.9668,11.599 34.6689,10.997 0,0 6.025,-19.392 -2.06,-32.568 0,0 -19.714,5.886 -32.6089,21.571"
         style="fill:#141110;fill-opacity:1;fill-rule:nonzero;stroke:none;stroke-width:0.1"
         id="path356-3" /><path
         d="m 670.37698,961.99973 c 2.6629,1.102 4.9953,1.93 9.7565,1.43 0,0 2.105,-4.163 0.089,-10.02 -0.339,-0.985 -1.6557,-1.192 -2.544,-0.671 -2.0253,1.188 -5.5574,3.538 -7.7015,6.545 -0.6199,0.87 -0.575,2.313 0.4,2.716"
         style="fill:#ee1b78;fill-opacity:1;fill-rule:nonzero;stroke:none;stroke-width:0.1"
         id="path358-1" /><path
         d="m 630.98048,914.64073 c -0.2926,0 -0.5879,0.07 -0.8598,0.216 -0.0781,0.041 -8.3836,4.338 -20.4445,2.298 -1.0008,-0.167 -1.934,0.501 -2.1016,1.493 -0.1679,0.993 0.5004,1.934 1.4934,2.102 2.141,0.362 4.1723,0.544 6.073,0.594 -0.7074,0.094 -1.446,0.173 -2.2171,0.238 -1.0036,0.084 -1.7485,0.965 -1.6653,1.968 0.0848,1.003 0.9657,1.753 1.9688,1.665 14.3601,-1.2 19.0363,-7.415 19.2281,-7.678 0.5004,-0.688 0.459,-1.63 -0.0996,-2.271 -0.3559,-0.408 -0.8613,-0.625 -1.3754,-0.625"
         style="fill:#100f0d;fill-opacity:1;fill-rule:nonzero;stroke:none;stroke-width:0.1"
         id="path360-9" /></g></g></svg>
