<?xml version="1.0" encoding="UTF-8" standalone="no"?>
<!-- Created with Inkscape (http://www.inkscape.org/) -->

<svg
   width="164.04401"
   height="39.568001"
   viewBox="0 0 43.403309 10.469034"
   version="1.1"
   id="svg5"
   xmlns="http://www.w3.org/2000/svg"
   xmlns:svg="http://www.w3.org/2000/svg">
  <defs
     id="defs2" />
  <g
     id="layer1">
    <g
       id="g3247"
       transform="translate(-32.372536,-84.31256)">
      <path
         d="m 35.597503,85.076547 q 0,0.06718 0.0052,0.149862 0.0155,0.749306 0,1.34875 -0.05684,1.653641 -0.268717,3.720692 l -0.113688,1.04386 -0.05684,0.516763 q -0.0052,0.04134 -0.02067,0.118855 l -0.01034,0.06201 -0.0155,0.07235 q -0.03101,0.165364 -0.01034,0.242878 -0.852658,-3.627674 -1.813837,-6.583557 -0.0155,-0.04651 -0.04134,-0.134358 l -0.02067,-0.07751 -0.02584,-0.08268 q -0.05684,-0.217041 -0.118856,-0.356566 -0.186034,-0.423746 -0.465086,-0.403075 -0.258381,0.02067 -0.248046,0.408242 0,0.06718 0.01034,0.160197 0.01033,0.06201 0.02067,0.155028 0.031,0.191203 0.031,0.242879 v 1.02319 l -0.0052,1.02319 q 0,2.165236 0.06718,4.237454 l 0.04134,1.255733 0.01033,0.258382 q 0.0052,0.149861 0.02067,0.253213 0.04134,0.28422 0.160196,0.48059 0.155029,0.01033 0.227376,-0.04134 0.07235,-0.04134 0.139526,-0.180867 0.103352,-0.227376 0.09818,-0.558104 0,-0.103353 -0.0155,-0.289387 l -0.01034,-0.144694 -0.0052,-0.149861 q -0.02584,-0.645953 -0.04651,-1.364253 -0.03101,-1.30741 -0.04134,-2.738843 l -0.01034,-1.54512 q 0.997352,3.296946 1.819004,7.100319 0.04134,0.201538 0.325561,0.165364 0.284219,-0.03617 0.310057,-0.232543 l 0.242879,-2.072218 q 0.134358,-1.157549 0.227376,-2.072219 0.175699,-1.808669 0.263548,-4.206448 0.0052,-0.05168 0.0155,-0.149861 l 0.01034,-0.09302 0.01034,-0.09819 q 0.03101,-0.258381 0.02584,-0.423745 -0.01034,-0.516763 -0.356566,-0.558104 -0.201538,-0.03101 -0.289387,0.149861 -0.06201,0.129191 -0.07235,0.366901 z"
         id="path3188"
         style="font-size:10.5833px;line-height:1.25;font-family:'Lemonade Stand';-inkscape-font-specification:'Lemonade Stand';stroke-width:0.264583" />
      <path
         d="m 37.835085,84.931854 q 0.160197,4.087593 -0.175699,9.182873 -0.0052,0.08268 0.08785,0.144693 0.08785,0.06201 0.21704,0.08785 0.124023,0.03101 0.21704,0.0155 0.09819,-0.02067 0.103353,-0.08268 0.341063,-5.09528 0.170532,-9.265555 -0.0052,-0.144694 -0.315226,-0.201537 -0.315225,-0.05168 -0.30489,0.118856 z"
         id="path3190"
         style="font-size:10.5833px;line-height:1.25;font-family:'Lemonade Stand';-inkscape-font-specification:'Lemonade Stand';stroke-width:0.264583" />
      <path
         d="m 43.090562,85.076547 q 0,0.06718 0.0052,0.149862 0.0155,0.749306 0,1.34875 -0.05684,1.653641 -0.268717,3.720692 l -0.113688,1.04386 -0.05684,0.516763 q -0.0052,0.04134 -0.02067,0.118855 l -0.01033,0.06201 -0.0155,0.07235 q -0.03101,0.165364 -0.01033,0.242878 -0.852659,-3.627674 -1.813837,-6.583557 -0.0155,-0.04651 -0.04134,-0.134358 l -0.02067,-0.07751 -0.02584,-0.08268 q -0.05684,-0.217041 -0.118856,-0.356566 -0.186034,-0.423746 -0.465086,-0.403075 -0.258381,0.02067 -0.248046,0.408242 0,0.06718 0.01033,0.160197 0.01034,0.06201 0.02067,0.155028 0.03101,0.191203 0.03101,0.242879 v 1.02319 l -0.0052,1.02319 q 0,2.165236 0.06718,4.237454 l 0.04134,1.255733 0.01034,0.258382 q 0.0052,0.149861 0.02067,0.253213 0.04134,0.28422 0.160196,0.48059 0.155029,0.01033 0.227376,-0.04134 0.07235,-0.04134 0.139526,-0.180867 0.103352,-0.227376 0.09819,-0.558104 0,-0.103353 -0.0155,-0.289387 L 40.6618,92.998527 40.6566,92.848666 q -0.02584,-0.645953 -0.04651,-1.364253 -0.03101,-1.30741 -0.04134,-2.738843 l -0.01033,-1.54512 q 0.997352,3.296946 1.819005,7.100319 0.04134,0.201538 0.32556,0.165364 0.28422,-0.03617 0.310058,-0.232543 l 0.242878,-2.072218 q 0.134358,-1.157549 0.227376,-2.072219 0.175699,-1.808669 0.263549,-4.206448 0.0052,-0.05168 0.0155,-0.149861 l 0.01033,-0.09302 0.01033,-0.09819 q 0.03101,-0.258381 0.02584,-0.423745 -0.01033,-0.516763 -0.356566,-0.558104 -0.201538,-0.03101 -0.289387,0.149861 -0.06201,0.129191 -0.07235,0.366901 z"
         id="path3192"
         style="font-size:10.5833px;line-height:1.25;font-family:'Lemonade Stand';-inkscape-font-specification:'Lemonade Stand';stroke-width:0.264583" />
      <path
         d="m 45.974097,94.595316 q 0.50126,0.242878 0.992184,0.04651 0.50126,-0.201538 0.682127,-0.723468 0.263549,-0.759641 0.211873,-1.881016 -0.01033,-0.346231 -0.07235,-0.966346 l -0.04134,-0.475422 q -0.02067,-0.263549 -0.03617,-0.470254 -0.170532,-3.090241 -0.180867,-5.332991 0,-0.222208 -0.315225,-0.279052 -0.129191,-0.02067 -0.222208,0.0155 -0.09819,0.04134 -0.09819,0.139526 0.0155,3.467478 0.273884,6.6404 0.0052,0.06201 0.0155,0.155029 l 0.0052,0.08268 0.01034,0.08785 q 0.02067,0.227375 0.03101,0.387572 0.03617,0.496092 0.01034,0.862994 -0.06201,1.059363 -0.594277,1.353918 -0.475422,0.263549 -0.919838,-0.41341 -0.170532,-0.258382 -0.284219,-0.583942 -0.108521,-0.299723 -0.108521,-0.490925 -0.0052,-0.09819 -0.103352,-0.160196 -0.09302,-0.06201 -0.21704,-0.06718 -0.129191,-0.0052 -0.217041,0.04651 -0.09819,0.05684 -0.09819,0.170532 0.01034,0.594277 0.377237,1.100705 0.341063,0.475421 0.899167,0.754473 z"
         id="path3194"
         style="font-size:10.5833px;line-height:1.25;font-family:'Lemonade Stand';-inkscape-font-specification:'Lemonade Stand';stroke-width:0.264583" />
      <path
         d="m 51.291585,86.368454 q 0.155029,0.7183 0.423746,1.756993 l 0.227375,0.873329 0.227376,0.868162 q 0.08268,0.32556 0.19637,0.759641 l 0.211872,0.759641 q -1.188554,0.186034 -2.439119,0.09302 l 0.30489,-1.276404 0.299722,-1.276404 q 0.346231,-1.488276 0.547768,-2.557975 z m -1.813837,8.376723 q 0.160197,-0.08268 0.19637,-0.361734 l 0.01033,-0.118855 0.01034,-0.113688 q 0.01033,-0.129191 0.03617,-0.201537 0.10852,-0.289387 0.144694,-0.888832 v -0.01033 -0.02067 q 0,-0.02067 0.0052,-0.04651 0.0052,-0.07751 0.01034,-0.149861 0.0155,-0.232543 0.03617,-0.418577 0.06201,-0.583942 0.129191,-0.578775 1.379756,0.129191 2.630322,-0.03617 0.43408,1.612299 0.568439,2.650992 0.0052,0.03617 0.10852,0.05168 0.08785,0.0155 0.222208,0.01034 0.124023,-0.0052 0.21704,-0.02067 0.09819,-0.0155 0.09819,-0.03617 -0.134358,-1.054196 -0.599445,-2.759513 0.08785,-0.03617 0.06201,-0.113687 -0.02584,-0.06201 -0.129191,-0.134359 L 53.043444,90.735119 Q 52.929756,90.326876 52.852242,90.027154 L 52.68171,89.370865 52.511178,88.714577 q -0.403075,-1.52445 -0.583941,-2.392611 -0.129191,-0.620116 -0.19637,-1.09037 l -0.0155,-0.09819 -0.0155,-0.09819 q -0.02067,-0.113687 -0.05168,-0.196369 -0.07752,-0.217041 -0.237711,-0.30489 -0.222208,-0.118856 -0.351399,0.134358 -0.04651,0.09302 -0.07751,0.227376 -0.0155,0.05168 -0.02584,0.113687 -0.0052,0.04134 -0.0155,0.09302 -0.217041,1.503779 -0.547769,2.945547 -0.01033,0.04134 -0.144693,0.651121 -0.06718,0.30489 -0.118856,0.547768 -0.07751,0.325561 -0.139526,0.599445 -0.356566,1.581294 -0.387572,1.581294 l -0.310057,-0.04134 q -0.149861,-0.02067 -0.21704,0.02584 -0.05684,0.04134 -0.03617,0.118855 0.02584,0.07235 0.10852,0.139526 0.08785,0.06718 0.19637,0.08268 l 0.175699,0.02584 q 0,0 -0.02584,0.108521 -0.02584,0.113687 -0.06718,0.284219 -0.103352,0.454751 -0.19637,0.888832 -0.273884,1.317745 -0.232543,1.483109 0.03617,0.124023 0.170532,0.19637 0.134358,0.06718 0.263549,0.02584 z"
         id="path3196"
         style="font-size:10.5833px;line-height:1.25;font-family:'Lemonade Stand';-inkscape-font-specification:'Lemonade Stand';stroke-width:0.264583" />
      <path
         d="m 57.647766,94.621154 q 0.310057,-0.03617 0.232543,-0.248046 -0.07751,-0.21704 -0.490925,-0.139526 -1.586461,0.170532 -2.206576,-1.694981 -0.237711,-0.69763 -0.320393,-1.653641 -0.06718,-0.723468 -0.03617,-1.519282 0.05684,-1.581294 0.563271,-2.692334 0.666624,-1.457271 1.617467,-1.560623 0.666624,-0.03617 0.50126,-0.310058 -0.165364,-0.279052 -0.537433,-0.175699 -1.555456,0.263549 -2.273756,1.943028 -0.537433,1.260901 -0.547769,3.116079 -0.01033,2.092888 0.682127,3.415801 0.909502,1.72082 2.816357,1.519282 z"
         id="path3198"
         style="font-size:10.5833px;line-height:1.25;font-family:'Lemonade Stand';-inkscape-font-specification:'Lemonade Stand';stroke-width:0.264583" />
      <path
         d="m 60.458955,85.371102 q 0.583942,0.470254 0.904335,1.591629 0.118855,0.418578 0.201538,0.945676 0.03617,0.211873 0.06718,0.449583 0.02067,0.165365 0.04651,0.397908 0.330728,2.899038 -0.50126,4.645696 -0.07751,0.165364 -0.175699,0.315225 -0.124023,0.186035 -0.253214,0.310058 -0.346231,0.315225 -0.661456,0.10852 -0.475421,-0.299722 -0.697629,-1.147213 -0.08268,-0.310058 -0.134359,-0.723468 -0.02067,-0.155028 -0.04134,-0.346231 l -0.0155,-0.160196 -0.0155,-0.144694 q -0.403075,-3.98424 1.276403,-6.242493 z m -0.558103,9.069185 q 0.397907,0.149861 0.831988,0.03101 0.408242,-0.113688 0.713132,-0.423745 0.315225,-0.330729 0.52193,-0.904335 0.139526,-0.387572 0.263549,-1.02319 0.248046,-1.286739 0.129191,-2.955883 -0.04651,-0.60978 -0.118855,-1.090369 -0.09819,-0.666624 -0.258382,-1.193722 -0.423745,-1.384924 -1.281571,-1.844843 -0.02584,-0.09302 -0.289387,-0.124023 -0.263549,-0.031 -0.346231,0.06718 -1.157549,1.364253 -1.488277,3.472645 -0.279052,1.772496 0.05168,3.839546 0.124024,0.795815 0.356567,1.271237 0.32556,0.666624 0.91467,0.878496 z"
         id="path3200"
         style="font-size:10.5833px;line-height:1.25;font-family:'Lemonade Stand';-inkscape-font-specification:'Lemonade Stand';stroke-width:0.264583" />
      <path
         d="m 66.246697,89.675735 q -0.06718,1.152381 -0.527098,2.170404 -0.490925,1.074866 -1.32808,1.772496 -0.0052,-0.470254 -0.02584,-1.064532 l -0.03101,-1.069698 q -0.04651,-1.39526 -0.05684,-2.13423 -0.03101,-2.485629 0.232543,-4.258125 0.573607,0.170532 0.950844,0.816485 0.144693,0.248046 0.284219,0.599445 0.05168,0.134358 0.113688,0.315225 l 0.05168,0.149862 0.05168,0.155028 q 0.37207,1.105872 0.28422,2.54764 z M 64.32434,84.647634 q -0.165364,-0.031 -0.232543,0.03617 -0.06201,0.05684 -0.02584,0.155029 -0.134358,0.08785 -0.149861,0.196369 -0.299722,1.901687 -0.258381,4.650865 0.01033,0.501259 0.03101,1.167883 l 0.03617,1.162716 q 0.05168,1.472774 0.05168,2.335768 0,0.180866 0.227376,0.170531 0.222208,-0.0155 0.341063,-0.165364 1.255734,-0.769976 1.91719,-2.180738 0.604612,-1.286739 0.620115,-2.873201 0.02067,-1.560623 -0.537433,-2.831859 -0.69763,-1.586462 -2.020542,-1.824173 z"
         id="path3202"
         style="font-size:10.5833px;line-height:1.25;font-family:'Lemonade Stand';-inkscape-font-specification:'Lemonade Stand';stroke-width:0.264583" />
      <path
         d="m 67.838325,85.164397 0.01033,0.10852 q 0.02584,0.217041 0.0155,0.563272 l -0.01034,0.284219 q -0.01033,0.175699 -0.01033,0.28422 l -0.01034,2.005039 -0.01033,2.010207 q -0.02067,2.526969 -0.02067,4.015246 0,0.01033 0.06201,0 0.06718,-0.01034 0.149861,-0.03617 0.186035,0.124023 0.294555,0.124023 0.397907,-0.0052 1.043861,-0.09819 l 0.516762,-0.07235 q 0.294555,-0.04134 0.516763,-0.06201 0.124023,-0.01033 0.118855,-0.06718 0,-0.05168 -0.08785,-0.129191 -0.08268,-0.06718 -0.191202,-0.118855 -0.113688,-0.05168 -0.180867,-0.04651 -0.289387,0.02584 -0.831988,0.103353 l -0.41341,0.05684 q -0.232544,0.03101 -0.413411,0.04651 0,-1.607132 0.02067,-4.625026 l 0.294555,-0.04134 0.294554,-0.04134 q 0.335896,-0.03617 0.58911,-0.02067 0.258381,0.0155 0.423745,-0.170532 0.06718,-0.07235 0.04134,-0.139526 -0.02584,-0.06718 -0.124023,-0.07235 -0.320393,-0.02067 -0.759641,0.03101 l -0.377237,0.05168 -0.377236,0.04651 q 0.0155,-2.583813 0.02067,-4.118599 0.496092,-0.07751 1.13171,-0.09818 0.0052,0 0.180867,0.0052 0.08268,0 0.149861,0.0052 h 0.165365 q 0.43408,-0.01033 0.43408,-0.09302 l 0.0052,-0.06718 v -0.06201 q -0.0052,-0.06718 -0.04134,-0.118856 h -0.08785 -0.08785 q -0.118855,0 -0.175699,-0.0052 0.01033,-0.03617 0.08268,-0.05168 0.02584,-0.0052 0.07235,-0.0155 l 0.07751,-0.0052 q 0.19637,-0.03101 0.155029,-0.155029 -0.134358,-0.07751 -0.330728,-0.05684 l -0.170532,0.02584 -0.170531,0.02584 q -0.165364,0.0155 -0.459919,0.0155 l -0.232543,0.0052 -0.227376,0.01033 q -0.0155,0 -0.201537,0 -0.08268,0.0052 -0.155029,0.0052 l -0.170532,0.0052 q -0.439248,0.02584 -0.470254,0.103352 -0.103352,0.248046 -0.07751,0.552936 z"
         id="path3204"
         style="font-size:10.5833px;line-height:1.25;font-family:'Lemonade Stand';-inkscape-font-specification:'Lemonade Stand';stroke-width:0.264583" />
      <path
         d="m 74.535571,87.634523 q 0.07751,0.744138 -0.41341,1.384924 -0.41341,0.537433 -1.152381,0.925005 l 0.0052,-0.170532 q 0.0155,-0.811317 -0.06201,-2.1549 l -0.05684,-1.074867 q -0.03101,-0.614947 -0.03617,-1.074866 0.707965,0.320393 1.152381,0.847491 0.485757,0.578774 0.563271,1.317745 z m -1.012855,4.061754 q 0.330728,0.475422 0.573607,0.847491 0.625283,0.950844 1.043861,1.746658 0.05168,0.103353 0.180866,0.149861 0.118856,0.04134 0.242879,0.02584 0.129191,-0.0155 0.180867,-0.08785 0.06201,-0.08268 0,-0.201538 -0.454751,-0.862993 -1.142046,-1.906854 -0.263549,-0.397907 -0.625283,-0.925005 l -0.63045,-0.909503 q 0.93534,-0.475421 1.395259,-1.219559 0.516763,-0.826821 0.310058,-1.803502 -0.19637,-0.940508 -1.018023,-1.653641 -0.7183,-0.63045 -1.725987,-0.945675 -0.222208,-0.06718 -0.232543,0.08785 -0.01034,0.144694 0.139526,0.294555 0.0052,0.444416 0.03101,1.02319 l 0.05684,1.02319 q 0.07235,1.30741 0.07235,2.04638 -0.0052,0.521931 -0.02584,1.19889 l -0.04651,1.193722 q -0.06201,1.539952 -0.05168,2.397778 0.0052,0.09302 0.30489,0.170532 0.09819,0.03101 0.206705,0.04651 0.04134,0.01034 0.06718,0.01034 0.02584,0.0052 0.02584,0 -0.01033,-0.733803 0.02067,-1.725987 l 0.03101,-0.857826 0.03617,-0.862994 z"
         id="path3206"
         style="font-size:10.5833px;line-height:1.25;font-family:'Lemonade Stand';-inkscape-font-specification:'Lemonade Stand';stroke-width:0.264583" />
    </g>
  </g>
</svg>
